PathFileType	4	(X/Y/Z)	OpenSim_Sub08_EMGStiffKnee_Magnet.trc
DataRate	CameraRate	NumFrames	NumMarkers	Units	OrigDataRate	OrigDataStartFrame	OrigNumFrames
100	100	36	8	m	100	3151	6301
Frame#	Time	torso_imu_offset_imu	pelvis_imu_offset_imu	tibia_r_imu_offset_imu	femur_r_imu_offset_imu	tibia_l_imu_offset_imu	femur_l_imu_offset_imu	toes_r_imu_offset_imu	toes_l_imu_offset_imu
				X1	Y1	Z1	X2	Y2	Z2	X3	Y3	Z3	X4	Y4	Z4	X5	Y5	Z5	X6	Y6	Z6	X7	Y7	Z7	X8		Y8	Z8	

3151	31.50000000	-0.91898402	-0.15442902	0.17187707	-0.62793957	0.23154359	-0.67405337	-0.74865049	-0.31699104	-0.10287775	-0.84880777	-0.15420575	-0.11188614	-0.50424448	0.52924762	0.39268370	-0.62728132	0.31281390	0.44724041	-0.50120700	-0.10263653	-0.60997531	-0.78737118	-0.17853957	-0.31532626
3152	31.51000000	-0.91744003	-0.15605505	0.17014761	-0.62579290	0.22513761	-0.67182525	-0.74708326	-0.30865681	-0.10375566	-0.84297911	-0.15517997	-0.11386925	-0.50356847	0.53979538	0.39187942	-0.62517944	0.31490840	0.45118103	-0.49449072	-0.09391422	-0.61196844	-0.79865553	-0.17717191	-0.30969316
3153	31.52000000	-0.91918902	-0.15191585	0.17450132	-0.62603125	0.22312791	-0.67929152	-0.75252965	-0.30195008	-0.10333470	-0.84701809	-0.16042039	-0.10862948	-0.50225999	0.54377525	0.38670676	-0.62538860	0.31998044	0.44280522	-0.49079086	-0.08395988	-0.61436867	-0.80309739	-0.17475271	-0.31121252
3154	31.53000000	-0.91529743	-0.15190274	0.17454403	-0.63016522	0.21876970	-0.67973313	-0.76264980	-0.29242434	-0.09685532	-0.84505341	-0.15445668	-0.10411733	-0.48989395	0.54880860	0.38290334	-0.62342075	0.33111388	0.45161254	-0.48727433	-0.07790900	-0.61887791	-0.80959202	-0.17279549	-0.29986487
3155	31.54000000	-0.92018410	-0.14755847	0.17873110	-0.62957539	0.21473202	-0.66859990	-0.76260896	-0.28924220	-0.09542903	-0.84660547	-0.15895989	-0.10036652	-0.49404039	0.55461359	0.38939932	-0.62096417	0.33677962	0.44699909	-0.48970715	-0.06950014	-0.62287722	-0.80951149	-0.17310299	-0.29293190
3156	31.55000000	-0.92174562	-0.14566586	0.17830528	-0.62499220	0.21033804	-0.67391917	-0.76500730	-0.27332705	-0.09820877	-0.84054080	-0.15882855	-0.10453543	-0.48050451	0.55510004	0.38641167	-0.61781235	0.33991264	0.44862854	-0.48962952	-0.06130718	-0.62226099	-0.81416117	-0.17319289	-0.27922088
3157	31.56000000	-0.91956418	-0.14589171	0.17592995	-0.62335050	0.20413685	-0.67547685	-0.76331340	-0.27569303	-0.09522499	-0.84319666	-0.16338858	-0.09387594	-0.48125401	0.56169070	0.38640028	-0.62642872	0.35235452	0.43695743	-0.48747516	-0.05365622	-0.61921691	-0.82173214	-0.17562151	-0.27107689
3158	31.57000000	-0.91966753	-0.14527296	0.17427954	-0.62750031	0.20236465	-0.67547223	-0.76972765	-0.26672321	-0.09430275	-0.84447756	-0.16715424	-0.08912490	-0.47421457	0.56393406	0.38864213	-0.61682608	0.35208461	0.43545122	-0.48313649	-0.05384522	-0.62975080	-0.83380296	-0.17771911	-0.26286068
3159	31.58000000	-0.92015993	-0.13910050	0.17557541	-0.62517343	0.20236415	-0.67781176	-0.76756698	-0.26342042	-0.10056156	-0.84031810	-0.16692110	-0.10011362	-0.47029768	0.57351548	0.38734233	-0.61614119	0.35890604	0.43320124	-0.47967594	-0.04917560	-0.62902708	-0.82663319	-0.17813122	-0.24051593
3160	31.59000000	-0.92196206	-0.14229984	0.17232109	-0.62486719	0.20253480	-0.67790987	-0.77241333	-0.26058438	-0.09614970	-0.84073409	-0.16711530	-0.09177115	-0.46339963	0.58378443	0.38317695	-0.62052819	0.36339791	0.43019562	-0.48234705	-0.04319748	-0.62936405	-0.83191291	-0.18231623	-0.23256854
3161	31.60000000	-0.91986721	-0.14521272	0.18303581	-0.62099047	0.19924706	-0.68311970	-0.77628468	-0.25057444	-0.09875223	-0.84279513	-0.16916549	-0.08844722	-0.45486371	0.58577422	0.38930654	-0.61793099	0.37436403	0.42417070	-0.48644896	-0.03917518	-0.62678723	-0.83647018	-0.17762506	-0.21978377
3162	31.61000000	-0.92457559	-0.13731636	0.17511081	-0.62465717	0.18768282	-0.68889569	-0.77435366	-0.25062655	-0.09431119	-0.84182711	-0.17139208	-0.09278789	-0.45306485	0.59297405	0.38181016	-0.61118416	0.37818811	0.42836674	-0.48565345	-0.03524378	-0.62568195	-0.84028533	-0.17858919	-0.19819224
3163	31.62000000	-0.92402153	-0.14178960	0.17377469	-0.62056101	0.19416413	-0.68639958	-0.77615759	-0.24435122	-0.09734196	-0.83372462	-0.17604133	-0.09041600	-0.44899903	0.60144618	0.37865939	-0.60557385	0.38310358	0.42087997	-0.48030552	-0.03365043	-0.62887500	-0.83794004	-0.18301597	-0.19182929
3164	31.63000000	-0.92427221	-0.13919222	0.17418437	-0.62526937	0.18715288	-0.68397071	-0.77048003	-0.24436829	-0.09607573	-0.83600044	-0.18420312	-0.08865544	-0.44342619	0.60565498	0.37006427	-0.60769909	0.39181454	0.41997179	-0.48865612	-0.03535167	-0.61854467	-0.84291769	-0.18508867	-0.17543470
3165	31.64000000	-0.92460972	-0.13946785	0.17536442	-0.62646089	0.18572247	-0.68416767	-0.77655769	-0.24336432	-0.08790744	-0.83355795	-0.18817413	-0.07298479	-0.42869661	0.60991956	0.37502822	-0.60184907	0.39574980	0.42618694	-0.48903910	-0.02910246	-0.61926555	-0.84412969	-0.18520751	-0.16216194
3166	31.65000000	-0.92577347	-0.13936036	0.16691517	-0.62220615	0.18612895	-0.68384842	-0.77249937	-0.25067156	-0.09172820	-0.83348606	-0.19205351	-0.07645143	-0.43160642	0.61502509	0.37841277	-0.60815184	0.40055053	0.42078356	-0.50010924	-0.02733900	-0.61663724	-0.83482390	-0.19027734	-0.14313643
3167	31.66000000	-0.92006813	-0.13951691	0.17166818	-0.62309996	0.18709083	-0.68201499	-0.77837203	-0.24534671	-0.08305189	-0.83365339	-0.19455982	-0.07516562	-0.42158229	0.62545173	0.37328057	-0.59960607	0.40896631	0.41458984	-0.50804069	-0.02623618	-0.60770080	-0.83571079	-0.19627390	-0.12167102
3168	31.67000000	-0.92654385	-0.14191714	0.16697754	-0.62885278	0.17660664	-0.68359218	-0.77169680	-0.26271892	-0.08228839	-0.83514373	-0.20531892	-0.06580619	-0.40903320	0.62809023	0.37308558	-0.60460973	0.40882775	0.41460368	-0.51633222	-0.04079574	-0.59506002	-0.83697318	-0.19446879	-0.10989612
3169	31.68000000	-0.92675514	-0.14373960	0.16411300	-0.62901624	0.17761384	-0.67906215	-0.77570209	-0.26586441	-0.07290598	-0.83283602	-0.21069640	-0.06341684	-0.40455756	0.64160671	0.37040947	-0.60164180	0.41533894	0.40667600	-0.52894632	-0.06423236	-0.58158078	-0.82817730	-0.20368100	-0.08506621
3170	31.69000000	-0.93247805	-0.14139924	0.15381886	-0.63288424	0.17932943	-0.68165266	-0.76899126	-0.27298653	-0.06304155	-0.83023761	-0.21566538	-0.05864411	-0.39135523	0.64821126	0.36891850	-0.59818515	0.41817548	0.39651828	-0.54528379	-0.06547843	-0.56127836	-0.83280464	-0.20785101	-0.06966841
3171	31.70000000	-0.92598085	-0.14188120	0.15584717	-0.62583092	0.17720942	-0.68109940	-0.77145401	-0.28041998	-0.04830147	-0.82392697	-0.22775289	-0.05306041	-0.38519335	0.66155829	0.35762512	-0.60270180	0.43095808	0.39839855	-0.55771534	-0.07570102	-0.55093760	-0.82944826	-0.21249519	-0.04862739
3172	31.71000000	-0.92843912	-0.14620135	0.14701931	-0.62772242	0.17983008	-0.67941057	-0.77120896	-0.27800542	-0.05315231	-0.82417189	-0.22915002	-0.04133377	-0.37088803	0.66710153	0.35902013	-0.59831509	0.42993678	0.39180162	-0.57587506	-0.10113456	-0.53078797	-0.82256744	-0.21953380	-0.02397621
3173	31.72000000	-0.92817694	-0.14771546	0.14756818	-0.63761430	0.18111803	-0.68128985	-0.77114794	-0.28053773	-0.04011263	-0.82177834	-0.23376484	-0.03252506	-0.35108342	0.67011500	0.34752407	-0.60341493	0.42872786	0.39173149	-0.58974474	-0.11544886	-0.50819616	-0.81823062	-0.22564280	-0.00179453
3174	31.73000000	-0.92819089	-0.14611792	0.14259536	-0.62993737	0.17974318	-0.67409383	-0.76871701	-0.28540307	-0.02253344	-0.81952302	-0.24012553	-0.02805961	-0.33887712	0.68641246	0.34681313	-0.60768276	0.43744134	0.38180755	-0.60196437	-0.11411479	-0.49425255	-0.81529228	-0.22839188	0.02152557
3175	31.74000000	-0.92807567	-0.15235467	0.13830821	-0.62741523	0.19097634	-0.67518641	-0.76367669	-0.29531342	-0.01122725	-0.81743354	-0.24622628	-0.02514368	-0.32762166	0.70120121	0.33888602	-0.60992621	0.43880090	0.37396820	-0.61029902	-0.12703046	-0.48205761	-0.80067977	-0.23738682	0.05054597
3176	31.75000000	-0.93047811	-0.14983860	0.12901230	-0.63371943	0.19627680	-0.67412519	-0.75795250	-0.30075662	0.00253708	-0.81681397	-0.24966083	-0.01805019	-0.30971447	0.71024923	0.33101762	-0.61456576	0.43662558	0.37302757	-0.62196484	-0.13298498	-0.47319303	-0.78744150	-0.24417485	0.08117316
3177	31.76000000	-0.93238390	-0.14767376	0.12081593	-0.63158060	0.20126250	-0.66319308	-0.75649811	-0.32387447	0.01108679	-0.81118480	-0.24805090	-0.01427242	-0.28918597	0.72573587	0.31657111	-0.61852823	0.43658102	0.35697891	-0.62357041	-0.14137452	-0.45909498	-0.77571348	-0.25598469	0.12630894
3178	31.77000000	-0.93262657	-0.14877270	0.12086694	-0.63449984	0.21628028	-0.66680086	-0.74627025	-0.32854200	0.01712939	-0.81771249	-0.25188631	-0.01318829	-0.26341510	0.73671247	0.30614809	-0.62149688	0.43636254	0.35078389	-0.63018825	-0.14472280	-0.45405205	-0.76185209	-0.27100151	0.16225482
3179	31.78000000	-0.93653498	-0.15919482	0.11416760	-0.63444870	0.22334683	-0.66389084	-0.74865485	-0.33324352	0.03425404	-0.81471356	-0.25018718	0.00022250	-0.24853725	0.75032524	0.28522925	-0.63503147	0.43126061	0.33914086	-0.63602802	-0.14016567	-0.43355634	-0.74989940	-0.27490011	0.20775207
3180	31.79000000	-0.93605783	-0.15876506	0.10809612	-0.63465567	0.22152450	-0.65696108	-0.74142524	-0.34193256	0.03419822	-0.81031019	-0.25852851	0.00005367	-0.22573022	0.76548517	0.27613040	-0.64545439	0.41997381	0.33115513	-0.63877599	-0.13457342	-0.43053910	-0.72681872	-0.27688061	0.25373744
3181	31.80000000	-0.93399032	-0.16048170	0.10571730	-0.63697575	0.22773147	-0.65533564	-0.73741618	-0.35021368	0.03836770	-0.80648394	-0.26091943	0.00212298	-0.20174438	0.77347714	0.26894772	-0.65841523	0.41170721	0.32605380	-0.64721813	-0.13751165	-0.42122668	-0.70679288	-0.27450567	0.30890201
3182	31.81000000	-0.93439853	-0.15624334	0.09908594	-0.63907058	0.22523831	-0.65818431	-0.73725965	-0.35838135	0.03489172	-0.80597159	-0.27426549	0.00077258	-0.18162219	0.77318141	0.26736835	-0.66941506	0.40366036	0.31288643	-0.65039280	-0.14659230	-0.41393972	-0.68499280	-0.26716446	0.34440726
3183	31.82000000	-0.93419343	-0.15945874	0.09748115	-0.63863166	0.22496281	-0.66259945	-0.73462756	-0.36464173	0.04362644	-0.80105634	-0.28831058	0.00869417	-0.15662066	0.77587857	0.27401169	-0.68141318	0.37977948	0.30899346	-0.65006127	-0.15786263	-0.41602863	-0.67316641	-0.25138563	0.39028315
3184	31.83000000	-0.93446411	-0.16456610	0.09738466	-0.63373160	0.21885413	-0.66476049	-0.72771524	-0.37061916	0.03925291	-0.79479766	-0.29827128	0.01571381	-0.13543545	0.77988099	0.28264816	-0.68991156	0.36961185	0.29990744	-0.65204735	-0.15789258	-0.41109816	-0.65914410	-0.23108521	0.43146786
3185	31.84000000	-0.93845218	-0.15849288	0.09550107	-0.62672633	0.21657672	-0.67185969	-0.72198582	-0.37757518	0.04438903	-0.79230855	-0.30633500	0.01749613	-0.12468328	0.77718442	0.28834854	-0.70045092	0.35589022	0.29371139	-0.64983000	-0.16641740	-0.40504065	-0.63339165	-0.20695984	0.46065385
3186	31.85000000	-0.93354670	-0.16065089	0.09951137	-0.62153659	0.21318397	-0.67583480	-0.72684667	-0.38718157	0.04412683	-0.78826328	-0.30983250	0.01637236	-0.11023790	0.77559773	0.28914284	-0.70844175	0.34052832	0.28934693	-0.65224279	-0.16760803	-0.40518087	-0.61935054	-0.18485991	0.49607090
